<svg width="80" height="80" viewBox="0 0 80 80" fill="none" xmlns="http://www.w3.org/2000/svg">
    <circle cx="40" cy="40" r="40" fill="white" />
    <path
        d="M39.875 33.5005C37.803 33.5005 35.8159 34.3236 34.3507 35.7887C32.8856 37.2538 32.0625 39.241 32.0625 41.313C32.0625 43.385 32.8856 45.3721 34.3507 46.8373C35.8159 48.3024 37.803 49.1255 39.875 49.1255C41.947 49.1255 43.9341 48.3024 45.3993 46.8373C46.8644 45.3721 47.6875 43.385 47.6875 41.313C47.6875 39.241 46.8644 37.2538 45.3993 35.7887C43.9341 34.3236 41.947 33.5005 39.875 33.5005Z"
        fill="black" />
    <path fill-rule="evenodd" clip-rule="evenodd"
        d="M34.3417 21.1485C38.0279 20.9505 41.7221 20.9505 45.4083 21.1485C47.4229 21.2568 49.2208 22.3672 50.2667 24.0443L51.9771 26.7881C52.4771 27.586 53.3208 28.1277 54.2896 28.2672C55.0938 28.3797 55.8937 28.5027 56.6896 28.636C59.6729 29.1339 61.75 31.7464 61.75 34.6964V52.2506C61.75 53.9082 61.0915 55.4979 59.9194 56.67C58.7473 57.8421 57.1576 58.5006 55.5 58.5006H24.25C22.5924 58.5006 21.0027 57.8421 19.8306 56.67C18.6585 55.4979 18 53.9082 18 52.2506V34.6964C18 31.7464 20.0771 29.1339 23.0604 28.636C23.8562 28.5027 24.6562 28.3797 25.4583 28.2652C25.9284 28.2023 26.3789 28.0372 26.7784 27.7817C27.1779 27.5262 27.5166 27.1863 27.7708 26.786L29.4833 24.0464C30.001 23.209 30.7128 22.5087 31.5585 22.0046C32.4042 21.5005 33.3588 21.2055 34.3417 21.1485ZM28.9375 41.3131C28.9375 38.4123 30.0898 35.6303 32.141 33.5791C34.1922 31.5279 36.9742 30.3756 39.875 30.3756C42.7758 30.3756 45.5578 31.5279 47.609 33.5791C49.6602 35.6303 50.8125 38.4123 50.8125 41.3131C50.8125 44.2139 49.6602 46.9959 47.609 49.0471C45.5578 51.0982 42.7758 52.2506 39.875 52.2506C36.9742 52.2506 34.1922 51.0982 32.141 49.0471C30.0898 46.9959 28.9375 44.2139 28.9375 41.3131ZM53.9375 38.1881C54.3519 38.1881 54.7493 38.0235 55.0424 37.7304C55.3354 37.4374 55.5 37.04 55.5 36.6256C55.5 36.2112 55.3354 35.8138 55.0424 35.5207C54.7493 35.2277 54.3519 35.0631 53.9375 35.0631C53.5231 35.0631 53.1257 35.2277 52.8326 35.5207C52.5396 35.8138 52.375 36.2112 52.375 36.6256C52.375 37.04 52.5396 37.4374 52.8326 37.7304C53.1257 38.0235 53.5231 38.1881 53.9375 38.1881Z"
        fill="black" />
</svg>
    