<svg width="80" height="80" viewBox="0 0 80 80" fill="none" xmlns="http://www.w3.org/2000/svg">
    <path
        d="M62.3664 24.0338C62.0567 23.7214 61.6881 23.4734 61.2817 23.3042C60.8757 23.135 60.4401 23.0479 59.9997 23.0479C59.5597 23.0479 59.1241 23.135 58.7181 23.3042C58.3117 23.4734 57.9431 23.7214 57.6334 24.0338L32.7999 48.9005L22.3666 38.4338C22.0448 38.1231 21.665 37.8788 21.2488 37.7145C20.8327 37.5505 20.3882 37.4702 19.941 37.4778C19.4937 37.4858 19.0523 37.5815 18.6421 37.7598C18.2318 37.9381 17.8607 38.1955 17.5499 38.5172C17.2391 38.8388 16.9947 39.2188 16.8307 39.6348C16.6667 40.0511 16.5863 40.4955 16.594 40.9428C16.6017 41.3901 16.6975 41.8315 16.8758 42.2418C17.0541 42.6518 17.3115 43.0232 17.6332 43.3338L30.4332 56.1338C30.7431 56.4461 31.1118 56.6941 31.518 56.8635C31.9242 57.0328 32.3599 57.1198 32.7999 57.1198C33.2399 57.1198 33.6757 57.0328 34.0817 56.8635C34.4881 56.6941 34.8567 56.4461 35.1667 56.1338L62.3664 28.9339C62.7051 28.6217 62.9751 28.2428 63.1597 27.8212C63.3444 27.3995 63.4397 26.9442 63.4397 26.4839C63.4397 26.0235 63.3444 25.5682 63.1597 25.1465C62.9751 24.7248 62.7051 24.346 62.3664 24.0338Z"
        fill="black" />
</svg>
    